<svg xmlns="http://www.w3.org/2000/svg" width="24" height="24" fill="none"><path fill="#343A3F" fill-opacity=".5" d="M12 1.5C6.21 1.5 1.5 6.18 1.5 12c0 5.803 4.696 10.5 10.5 10.5 5.813 0 10.5-4.706 10.5-10.5 0-5.815-4.708-10.5-10.5-10.5ZM10.79 3.968C9.627 4.722 8.815 5.3 8.635 5.942c-.314 1.122 1.683 1.938 2.236 2.43 1.004.89.543 3.098-.508 4.082-1.05.984-1.44 1.982-1.324 2.732.15.98 1.26 2.538 1.856 3.504.595.967-.04 1.185-.87.692-.616-.367-3.457-1.06-4.32-1.687-.863-.627-1.134-2.776-.86-3.67.272-.893.593-3.273-.769-4.06a2.536 2.536 0 0 1-.808-.715c1.21-3.832 4.866-6.565 9.103-6.396a38.09 38.09 0 0 1-1.582 1.114Zm8.974 9.737c-1.169-.122-2.526-.308-2.782-.448-1.07-.588-.718-1.391-.275-2.558.444-1.167-1.783-2.188-1.783-3.59 0-1.37.877-2.28 1.916-2.876A9.156 9.156 0 0 1 21.154 12a9.1 9.1 0 0 1-.772 3.677c-.047-.988.05-1.902-.619-1.972Z"/></svg>