<svg xmlns="http://www.w3.org/2000/svg" width="24" height="24" fill="none"><path fill="#4888FF" fill-opacity=".5" d="M8.741 9.184c.749 1.75 3.023 2.617 4.74 1.77 2.294-.933 2.817-4.3.957-5.886-2.836-2.643-7.31.568-5.697 4.116Zm7.163 3.57c-.718-.456-1.593-.701-2.482-.71-.105-.004-3.108-.01-3.106.014-2.46.113-4.457 2.192-4.456 4.703.042.416-.068 1.68.065 2.069A2.546 2.546 0 0 0 8.4 20.79h7.2c1.413.005 2.554-1.174 2.54-2.541v-1.488a4.715 4.715 0 0 0-2.235-4.006Z"/><path fill="#4888FF" fill-opacity=".5" d="M3.182 18.83h1.64c-.094-.38-.035-1.767-.051-2.178a5.83 5.83 0 0 1 4.144-5.458c-.215-.17-.404-.399-.58-.602a3.623 3.623 0 0 0-.486-.03h-2.65a4.455 4.455 0 0 0-4.449 4.45V16.4a2.431 2.431 0 0 0 2.432 2.43Zm3.345-8.811c.458 0 .885-.088 1.285-.255a4.538 4.538 0 0 1-.48-2.235A4.657 4.657 0 0 1 8.916 4.19c-2.039-2.108-5.862-.547-5.799 2.425a3.415 3.415 0 0 0 3.411 3.403Zm12.274.544h-2.65c-.521-.111-.715.346-1.066.631.96.287 1.828.82 2.518 1.546a5.79 5.79 0 0 1 1.626 3.912c-.015.416.041 1.785-.05 2.177h1.64a2.432 2.432 0 0 0 2.431-2.43v-1.387a4.455 4.455 0 0 0-4.449-4.449ZM16.377 6.07a4.616 4.616 0 0 1-.189 3.695c.407.17.844.256 1.285.253 4.507-.147 4.507-6.666 0-6.807a3.412 3.412 0 0 0-2.388.98 4.603 4.603 0 0 1 1.292 1.88Z"/></svg>