<svg xmlns="http://www.w3.org/2000/svg" width="48" height="48" fill="none"><path fill="#4888FF" d="M48 24c0 13.255-10.745 24-24 24S0 37.255 0 24 10.745 0 24 0s24 10.745 24 24Z"/><path fill="#4888FF" d="M45 24c0 11.598-9.402 21-21 21S3 35.598 3 24 12.402 3 24 3s21 9.402 21 21Z"/><path fill="#fff" d="M24.3 35.575a11.201 11.201 0 0 0 7.973-3.303 1.025 1.025 0 0 0 0-1.449L25.748 24.3l6.524-6.523a1.025 1.025 0 0 0 0-1.45A11.275 11.275 0 1 0 24.3 35.576Zm0-20.5a9.157 9.157 0 0 1 5.758 2.016l-6.483 6.484a1.025 1.025 0 0 0 0 1.45l6.483 6.484A9.226 9.226 0 1 1 24.3 15.075ZM35.575 24.3a2.05 2.05 0 1 1-4.099 0 2.05 2.05 0 0 1 4.099 0ZM20.2 19.175a2.05 2.05 0 1 1 4.099 0 2.05 2.05 0 0 1-4.099 0Z"/></svg>